:FULLY-SPECIFIED
:FORCE-ALL-JOINTS-BE-3DOF
:DEGREES
510
root 5.90887 16.3171 -5.21058 -167.532 77.74 -172.499
lfemur -23.9452 -14.9446 -23.1833
ltibia 52.6925 -0 0
lfoot -26.6368 -0.995397 -0.0112533
ltoes 5.07406 -0 0
rfemur -58.0418 5.89211 4.61632
rtibia 57.8191 -0 0
rfoot 11.8344 8.30195 -0.00365657
rtoes -17.7297 0 0
lowerback 8.90679 0.438835 -0.864282
upperback 1.44668 0.70525 3.13656
thorax -3.54527 0.410716 3.6618
lowerneck -8.44763 -12.5894 -4.19766
upperneck 11.911 -16.7399 2.78491
head 5.54509 -8.15372 0.2348
lclavicle 4.85117e-14 -4.9273e-17 4.30536e-30
lhumerus -46.8093 -34.9814 118.395
lradius 56.8888 -0 0
lwrist 6.12539 0 0
lhand 6.30661 -0.928763 -0.0115506
lfingers 7.12502 -0 0
lthumb 31.6178 26.3754 -0.00504187
rclavicle 4.85117e-14 -4.9273e-17 4.30536e-30
rhumerus -12.2331 43.4188 -71.1019
rradius 118.778 -0 0
rwrist -22.3359 0 0
rhand 26.8062 -13.4484 -0.0951861
rfingers 7.12502 -0 0
rthumb 50.743 -33.7133 0.0660171
511
root 5.96695 16.2865 -5.15521 -168.169 76.4154 -173.157
lfemur -24.0001 -14.2686 -23.3181
ltibia 53.4575 -0 0
lfoot -26.8372 0.20277 -0.00552999
ltoes 3.77799 -0 0
rfemur -57.7021 5.52676 4.14578
rtibia 56.3534 -0 0
rfoot 12.3457 8.25519 -0.00200616
rtoes -18.3002 0 0
lowerback 9.07412 0.524389 -0.785806
upperback 1.55561 0.845692 3.36177
thorax -3.5366 0.48466 3.83602
lowerneck -8.30282 -12.8705 -4.42827
upperneck 12.0853 -17.1123 2.91126
head 5.62845 -8.33256 0.270942
lclavicle 5.57471e-14 -3.90529e-15 2.34316e-30
lhumerus -46.537 -34.8616 118.421
lradius 57.0021 -0 0
lwrist 6.417 0 0
lhand 5.56742 -1.27144 -0.00890565
lfingers 7.12502 -0 0
lthumb 30.9127 26.1627 -0.00407341
rclavicle 5.57471e-14 -3.90529e-15 2.34316e-30
rhumerus -9.52586 41.5855 -69.1273
rradius 121.001 -0 0
rwrist -27.9316 0 0
rhand 29.1095 -13.8442 -0.0322034
rfingers 7.12502 -0 0
rthumb 52.8792 -33.2108 0.0222366
512
root 6.02504 16.2519 -5.10027 -168.693 75.0753 -173.721
lfemur -24.1735 -13.6461 -23.4015
ltibia 54.3304 0 0
lfoot -27.024 1.18555 0
ltoes 2.59832 0 0
rfemur -57.3378 5.16315 3.64834
rtibia 54.9244 0 0
rfoot 12.7254 8.24372 0
rtoes -19.017 0 0
lowerback 9.22882 0.586354 -0.670043
upperback 1.66754 0.959666 3.58606
thorax -3.51572 0.545763 3.9916
lowerneck -8.16919 -13.133 -4.64105
upperneck 12.2435 -17.4605 3.03047
head 5.70154 -8.49947 0.304551
lclavicle 5.60573e-14 -7.15625e-15 0
lhumerus -46.2895 -34.669 118.396
lradius 57.1515 0 0
lwrist 6.82495 0 0
lhand 4.68514 -1.62149 0
lfingers 7.12502 0 0
lthumb 30.0696 25.9532 0
rclavicle 5.60573e-14 -7.15625e-15 0
rhumerus -7.02353 39.6445 -67.6231
rradius 123.01 0 0
rwrist -32.4975 0 0
rhand 30.0326 -14.0088 0
rfingers 7.12502 0 0
rthumb 53.7363 -753.024 0
513
root 6.08233 16.2137 -5.04612 -169.093 73.6991 -174.216
lfemur -24.5079 -13.0694 -23.4384
ltibia 55.3225 -0 0
lfoot -27.1847 1.99238 0.00333164
ltoes 1.51406 -0 0
rfemur -56.9488 4.76073 3.11911
rtibia 53.4744 -0 0
rfoot 12.9718 8.27747 0.00163988
rtoes -19.9079 0 0
lowerback 9.35016 0.618196 -0.505285
upperback 1.77248 1.03906 3.81235
thorax -3.48095 0.589553 4.12577
lowerneck -8.04887 -13.3774 -4.83746
upperneck 12.3792 -17.7843 3.14022
head 5.76395 -8.65471 0.334938
lclavicle 4.73511e-14 -1.03948e-14 -2.63834e-30
lhumerus -46.0667 -34.3844 118.318
lradius 57.3466 -0 0
lwrist 7.36366 0 0
lhand 3.62298 -1.99208 0.0108698
lfingers 7.12502 -0 0
lthumb 29.0538 25.7446 0.00458573
rclavicle 4.73511e-14 -1.03948e-14 -2.63834e-30
rhumerus -4.64127 37.4779 -66.5613
rradius 124.805 -0 0
rwrist -36.074 0 0
rhand 29.4744 -13.8444 -0.043101
rfingers 7.12502 -0 0
rthumb 53.2253 -33.1573 -0.0244824
514
root 6.13848 16.1725 -4.99289 -169.385 72.2839 -174.668
lfemur -24.9949 -12.5052 -23.4507
ltibia 56.4165 -0 0
lfoot -27.3185 2.72721 0.00429747
ltoes 0.474456 -0 0
rfemur -56.5252 4.29186 2.55968
rtibia 51.9711 -0 0
rfoot 13.1333 8.3595 0.00232352
rtoes -20.9581 0 0
lowerback 9.42929 0.62481 -0.296483
upperback 1.86655 1.0897 4.04428
thorax -3.4319 0.618665 4.2442
lowerneck -7.93534 -13.6101 -5.02406
upperneck 12.4885 -18.0917 3.24366
head 5.81837 -8.80239 0.363285
lclavicle 3.09848e-14 -1.41838e-14 -5.10768e-30
lhumerus -45.8584 -34.0089 118.192
lradius 57.5829 -0 0
lwrist 8.01062 0 0
lhand 2.38286 -2.39388 0.0174345
lfingers 7.12502 -0 0
lthumb 27.8677 25.531 0.00650401
rclavicle 3.09848e-14 -1.41838e-14 -5.10768e-30
rhumerus -2.34151 34.9847 -65.8796
rradius 126.431 -0 0
rwrist -39.0248 0 0
rhand 27.7766 -13.4059 -0.146317
rfingers 7.12502 -0 0
rthumb 51.6643 -33.5422 -0.0713934
515
root 6.19428 16.128 -4.94022 -169.616 70.8521 -175.095
lfemur -25.5818 -11.9494 -23.4439
ltibia 57.593 -0 0
lfoot -27.4393 3.3847 0.00334617
ltoes -0.515914 0 0
rfemur -56.0627 3.79297 1.97529
rtibia 50.4678 -0 0
rfoot 13.2301 8.47979 0.00224552
rtoes -22.1311 0 0
lowerback 9.4861 0.615329 -0.0588064
upperback 1.95932 1.12287 4.27979
thorax -3.37045 0.639063 4.35213
lowerneck -7.82406 -13.8328 -5.20144
upperneck 12.577 -18.3858 3.34498
head 5.86626 -8.94375 0.390898
lclavicle 9.81988e-15 -1.80679e-14 -6.33184e-30
lhumerus -45.6624 -33.5641 118.026
lradius 57.8477 -0 0
lwrist 8.74117 0 0
lhand 1.00684 -2.81623 0.0190882
lfingers 7.12502 -0 0
lthumb 26.5511 25.3131 0.00613446
rclavicle 9.81988e-15 -1.80679e-14 -6.33184e-30
rhumerus -0.155948 32.295 -65.5547
rradius 127.903 -0 0
rwrist -41.4408 0 0
rhand 25.181 -12.8239 -0.252419
rfingers 7.12502 -0 0
rthumb 49.2732 -34.1459 -0.12179
516
root 6.25055 16.0799 -4.88776 -169.829 69.4258 -175.504
lfemur -26.2164 -11.3977 -23.4224
ltibia 58.8326 -0 0
lfoot -27.5609 3.95948 0.00128987
ltoes -1.45247 0 0
rfemur -55.5574 3.30053 1.37153
rtibia 49.0174 -0 0
rfoot 13.282 8.62831 0.00170827
rtoes -23.3903 0 0
lowerback 9.54055 0.598805 0.192621
upperback 2.06045 1.14982 4.5169
thorax -3.29842 0.65671 4.45484
lowerneck -7.71048 -14.0474 -5.37027
upperneck 12.6504 -18.6698 3.44828
head 5.90909 -9.08003 0.419073
lclavicle -1.32823e-14 -2.15916e-14 -5.86962e-30
lhumerus -45.4762 -33.072 117.825
lradius 58.1285 -0 0
lwrist 9.53064 0 0
lhand -0.463031 -3.24851 0.0161597
lfingers 7.12502 -0 0
lthumb 25.144 25.0913 0.00415056
rclavicle -1.32823e-14 -2.15916e-14 -5.86962e-30
rhumerus 1.89677 29.5369 -65.5463
rradius 129.238 -0 0
rwrist -43.4128 0 0
rhand 21.9309 -12.2324 -0.311228
rfingers 7.12502 -0 0
rthumb 46.2716 -34.9377 -0.160436
517
root 6.30806 16.0278 -4.83515 -170.061 68.027 -175.899
lfemur -26.8465 -10.846 -23.3898
ltibia 60.116 -0 0
lfoot -27.697 4.4462 -0.000789922
ltoes -2.33063 0 0
rfemur -55.0065 2.85103 0.754537
rtibia 47.6729 -0 0
rfoot 13.3092 8.79504 0.0010159
rtoes -24.699 0 0
lowerback 9.61267 0.584156 0.442686
upperback 2.17967 1.18167 4.75367
thorax -3.21761 0.67757 4.5576
lowerneck -7.59001 -14.2558 -5.53122
upperneck 12.7145 -18.9469 3.55759
head 5.94833 -9.21248 0.449096
lclavicle -3.54604e-14 -2.42992e-14 -4.01549e-30
lhumerus -45.2972 -32.5541 117.596
lradius 58.4125 -0 0
lwrist 10.3544 0 0
lhand -1.98473 -3.68014 0.0100731
lfingers 7.12502 -0 0
lthumb 23.6862 24.8663 0.00153759
rclavicle -3.54604e-14 -2.42992e-14 -4.01549e-30
rhumerus 3.80195 26.8358 -65.8033
rradius 130.451 -0 0
rwrist -45.0319 0 0
rhand 18.2703 -11.7713 -0.290625
rfingers 7.12502 -0 0
rthumb 42.878 -35.8901 -0.170152
518
root 6.36761 15.9716 -4.78203 -170.343 66.6776 -176.28
lfemur -27.4203 -10.2904 -23.3485
ltibia 61.4239 -0 0
lfoot -27.8615 4.83946 -0.00164902
ltoes -3.14581 0 0
rfemur -54.4079 2.48091 0.131098
rtibia 46.4874 -0 0
rfoot 13.3317 8.96997 0.000403263
rtoes -26.0207 0 0
lowerback 9.72259 0.580164 0.676291
upperback 2.32683 1.22952 4.98823
thorax -3.12981 0.707598 4.66569
lowerneck -7.45804 -14.4597 -5.68504
upperneck 12.7749 -19.2203 3.67691
head 5.98541 -9.34236 0.482246
lclavicle -5.38531e-14 -2.57353e-14 -1.67289e-30
lhumerus -45.1223 -32.0325 117.344
lradius 58.687 -0 0
lwrist 11.1876 0 0
lhand -3.51627 -4.10068 0.00342785
lfingers 7.12502 -0 0
lthumb 22.2177 24.6383 -0.000394133
rclavicle -5.38531e-14 -2.57353e-14 -1.67289e-30
rhumerus 5.54234 24.3133 -66.268
rradius 131.558 -0 0
rwrist -46.3888 0 0
rhand 14.4434 -11.5849 -0.18205
rfingers 7.12502 -0 0
rthumb 39.31 -36.9798 -0.12755
519
root 6.43001 15.9108 -4.72806 -170.709 65.3993 -176.644
lfemur -27.8863 -9.72688 -23.3002
ltibia 62.7368 0 0
lfoot -28.0681 5.13391 0
ltoes -3.89343 0 0
rfemur -53.7605 2.22653 -0.491125
rtibia 45.5139 0 0
rfoot 13.3695 9.14308 0
rtoes -27.3187 0 0
lowerback 9.89047 0.595528 0.878385
upperback 2.51185 1.30437 5.21878
thorax -3.03676 0.75274 4.78442
lowerneck -7.30993 -14.6609 -5.83251
upperneck 12.8371 -19.4934 3.81017
head 6.02179 -9.4709 0.519792
lclavicle -6.55989e-14 -2.54444e-14 0
lhumerus -44.9481 -31.5289 117.074
lradius 58.9395 0 0
lwrist 12.0058 0 0
lhand -5.01569 -4.49983 0
lfingers 7.12502 0 0
lthumb 20.7783 24.4077 0
rclavicle -6.55989e-14 -2.54444e-14 0
rhumerus 7.09407 22.0865 -66.8792
rradius 132.574 0 0
rwrist -47.5745 0 0
rhand 10.6931 -11.8183 0
rfingers 7.12502 0 0
rthumb 35.7834 -758.188 0
520
root 6.49488 15.8456 -4.67302 -171.16 64.1883 -176.973
lfemur -28.2466 -9.11468 -23.2448
ltibia 64.083 -0 0
lfoot -28.297 5.3275 0.000530058
ltoes -4.56062 0 0
rfemur -53.0125 2.14651 -1.14754
rtibia 44.695 -0 0
rfoot 13.5283 9.36935 -0.00292003
rtoes -28.636 0 0
lowerback 10.1356 0.630126 1.06237
upperback 2.7462 1.40939 5.453
thorax -2.9372 0.815088 4.91351
lowerneck -7.14639 -14.861 -5.97504
upperneck 12.8985 -19.7679 3.95619
head 6.05702 -9.59912 0.561179
lclavicle -7.00313e-14 -2.23751e-14 3.20534e-31
lhumerus -44.7757 -31.0501 116.789
lradius 59.1861 -0 0
lwrist 12.8331 0 0
lhand -6.54969 -4.91009 0.00575453
lfingers 7.12502 -0 0
lthumb 19.3037 24.1465 0.00639914
rclavicle -7.00313e-14 -2.23751e-14 3.20534e-31
rhumerus 8.53701 20.0962 -67.6482
rradius 133.464 -0 0
rwrist -48.41 0 0
rhand 6.64191 -12.5778 0.226529
rfingers 7.12502 -0 0
rthumb 31.9344 -39.6762 0.221145
521
root 6.56138 15.7762 -4.61715 -171.669 63.0237 -177.264
lfemur -28.5477 -8.44353 -23.18
ltibia 65.4892 -0 0
lfoot -28.5294 5.42435 -0.00294932
ltoes -5.14714 0 0
rfemur -52.1507 2.23118 -1.85383
rtibia 43.9645 -0 0
rfoot 13.8256 9.67599 -0.0103902
rtoes -30.0193 0 0
lowerback 10.4467 0.675787 1.24623
upperback 3.02508 1.53546 5.69532
thorax -2.8291 0.889997 5.0482
lowerneck -6.97183 -15.0589 -6.11247
upperneck 12.9532 -20.0416 4.11118
head 6.08966 -9.72625 0.605112
lclavicle -6.94715e-14 -1.6582e-14 -3.33948e-31
lhumerus -44.6088 -30.579 116.484
lradius 59.4434 -0 0
lwrist 13.6997 0 0
lhand -8.1779 -5.3519 0.0176421
lfingers 7.12502 -0 0
lthumb 17.7369 23.8446 0.0165877
rclavicle -6.94715e-14 -1.6582e-14 -3.33948e-31
rhumerus 9.94539 18.2273 -68.6072
rradius 134.201 -0 0
rwrist -48.755 0 0
rhand 1.94587 -13.7809 0.431174
rfingers 7.12502 -0 0
rthumb 27.445 -41.5279 0.445194
